# File created by Blade
# Date/Time:  Thu Jan 22 19:49:10 2015
#---------------------------------------------------------
:version 1.10
:name HOM
:units
  mass 1.0
  length 1.000000
  angle deg
:documentation
     Acclaim Skeleton File
:root
   axis xyz
   order TX TY TZ RX RY RZ
   position 0.000000 0.000000 0.000000
   orientation 0 0 0
:bonedata
   begin
      id 1
      name RightUpLeg_dum
      direction -1.000000 0.000000 0.000000
      length 4.478084
      axis 0.0 0.0 0.0 xyz
   end
   begin
      id 2
      name LeftUpLeg_dum
      direction 1.000000 0.000000 0.000000
      length 4.478084
      axis 0.0 0.0 0.0 xyz
   end
   begin
      id 3
      name Spine_dum
      direction 0.000000 1.000000 0.000000
      length 6.068208
      axis 0.0 0.0 0.0 xyz
   end
   begin
      id 4
      name RightUpLeg
      direction 0.000000 -1.000000 0.000000
      length 16.405774
      axis 0.0 0.0 0.0 xyz
      dof rx ry rz
   end
   begin
      id 5
      name RightLeg
      direction 0.000000 -1.000000 0.000000
      length 14.644143
      axis 0.0 0.0 0.0 xyz
      dof rx ry rz
   end
   begin
      id 6
      name RightFoot
      direction 0.000000 -0.258819 0.965926
      length 5.806150
      axis 15.0 0.0 0.0 xyz
      dof rx ry rz
   end
   begin
      id 7
      name RightToeBase
      direction 0.000000 0.000000 1.000000
      length 2.952750
      axis 0.0 0.0 0.0 xyz
      dof rx ry rz
   end
   begin
      id 8
      name LeftUpLeg
      direction 0.000000 -1.000000 0.000000
      length 16.405774
      axis 0.0 0.0 0.0 xyz
      dof rx ry rz
   end
   begin
      id 9
      name LeftLeg
      direction 0.000000 -1.000000 0.000000
      length 14.644143
      axis 0.0 0.0 0.0 xyz
      dof rx ry rz
   end
   begin
      id 10
      name LeftFoot
      direction 0.000000 -0.258819 0.965926
      length 5.806150
      axis 15.0 0.0 0.0 xyz
      dof rx ry rz
   end
   begin
      id 11
      name LeftToeBase
      direction 0.000000 0.000000 1.000000
      length 2.952750
      axis 0.0 0.0 0.0 xyz
      dof rx ry rz
   end
   begin
      id 12
      name Spine
      direction 0.000000 1.000000 0.000000
      length 0.000000
      axis 0.0 0.0 0.0 xyz
      dof rx ry rz
   end
   begin
      id 13
      name Spine_dum1
      direction 0.000000 1.000000 0.000000
      length 10.013923
      axis 0.0 0.0 0.0 xyz
   end
   begin
      id 14
      name Spine_dum2
      direction 0.000000 1.000000 0.000000
      length 10.013923
      axis 0.0 0.0 0.0 xyz
   end
   begin
      id 15
      name Spine_dum3
      direction 0.000000 1.000000 0.000000
      length 15.777476
      axis 0.0 0.0 0.0 xyz
   end
   begin
      id 16
      name RightShoulder
      direction -1.000000 0.000000 0.000000
      length 7.190220
      axis 0.0 0.0 90.0 xyz
      dof rx ry rz
   end
   begin
      id 17
      name RightArm
      direction -1.000000 0.000000 0.000000
      length 10.177469
      axis 0.0 0.0 90.0 xyz
      dof rx ry rz
   end
   begin
      id 18
      name RightForeArm
      direction -1.000000 0.000000 0.000000
      length 8.392114
      axis 0.0 0.0 90.0 xyz
      dof ry rz rx
   end
   begin
      id 19
      name RightHand
      direction -1.000000 0.000000 0.000000
      length 0.000000
      axis 0.0 0.0 90.0 xyz
      dof rx ry rz
   end
   begin
      id 20
      name RightHand_dum1
      direction -1.000000 0.000000 0.000000
      length 3.937000
      axis 0.0 0.0 90.0 xyz
   end
   begin
      id 21
      name RightHand_dum2
      direction 0.000000 0.000000 0.000000
      length 0.000000
      axis 0.0 0.0 90.0 xyz
   end
   begin
      id 22
      name RightHandThumb1
      direction 0.000000 0.000000 1.000000
      length 3.937000
      axis 0.0 0.0 90.0 xyz
      dof rx rz ry
   end
   begin
      id 23
      name LeftShoulder
      direction 1.000000 0.000000 0.000000
      length 7.190220
      axis 0.0 0.0 -90.0 xyz
      dof rx ry rz
   end
   begin
      id 24
      name LeftArm
      direction 1.000000 0.000000 0.000000
      length 10.177469
      axis 0.0 0.0 -90.0 xyz
      dof rx ry rz
   end
   begin
      id 25
      name LeftForeArm
      direction 1.000000 0.000000 0.000000
      length 8.392114
      axis 0.0 0.0 -90.0 xyz
      dof ry rz rx
   end
   begin
      id 26
      name LeftHand
      direction 1.000000 0.000000 0.000000
      length 0.000000
      axis 0.0 0.0 -90.0 xyz
      dof rx ry rz
   end
   begin
      id 27
      name LeftHand_dum1
      direction 1.000000 0.000000 0.000000
      length 3.937000
      axis 0.0 0.0 -90.0 xyz
   end
   begin
      id 28
      name LeftHand_dum2
      direction 0.000000 0.000000 0.000000
      length 0.000000
      axis 0.0 0.0 -90.0 xyz
   end
   begin
      id 29
      name LeftHandThumb1
      direction 0.000000 0.000000 1.000000
      length 3.937000
      axis 0.0 0.0 -90.0 xyz
      dof rx rz ry
   end
   begin
      id 30
      name Head
      direction 0.000000 1.000000 0.000000
      length 4.527550
      axis 0.0 0.0 0.0 xyz
      dof rx ry rz
   end
:hierarchy
   begin
      root RightUpLeg_dum LeftUpLeg_dum Spine_dum
      RightUpLeg_dum RightUpLeg
      LeftUpLeg_dum LeftUpLeg
      Spine_dum Spine
      RightUpLeg RightLeg
      RightLeg RightFoot
      RightFoot RightToeBase
      LeftUpLeg LeftLeg
      LeftLeg LeftFoot
      LeftFoot LeftToeBase
      Spine Spine_dum1 Spine_dum2 Spine_dum3
      Spine_dum1 RightShoulder
      Spine_dum2 LeftShoulder
      Spine_dum3 Head
      RightShoulder RightArm
      RightArm RightForeArm
      RightForeArm RightHand
      RightHand RightHand_dum1 RightHand_dum2
      RightHand_dum2 RightHandThumb1
      LeftShoulder LeftArm
      LeftArm LeftForeArm
      LeftForeArm LeftHand
      LeftHand LeftHand_dum1 LeftHand_dum2
      LeftHand_dum2 LeftHandThumb1
   end

# File created by Blade
# Date/Time:  Thu Jan 22 19:49:01 2015
# Frame Rate: 120.000 fps
#------------------------------------------------------
:FULLY-SPECIFIED
:DEGREES
1445
root -2.361724 3.091984 -10.767126 -28.323767 -0.124486 0.966439
RightUpLeg -61.380911 -5.828399 7.618017
RightLeg 6.469087 -0.000000 -0.000000
RightFoot 20.092834 -0.908050 8.731718
RightToeBase -12.342283 -0.000000 0.000000
LeftUpLeg -92.226823 -36.024358 -42.663239
LeftLeg 119.769782 -0.000000 -0.000000
LeftFoot 8.894269 16.324002 -5.231529
LeftToeBase -19.015018 -0.000000 0.000000
Spine 44.074285 43.771800 24.558477
RightShoulder 14.079486 22.490571 -27.035918
RightArm 43.485859 -47.337147 67.315900
RightForeArm -54.168523 -0.000000 29.578079
RightHand 57.135757 -0.000000 28.786369
RightHandThumb1 -24.326973 -0.000000 -32.862282
LeftShoulder -23.472291 5.874550 18.941104
LeftArm -1.166820 31.412503 -95.220273
LeftForeArm -0.657671 -0.000000 19.416916
LeftHand -18.043520 -0.000000 49.771916
LeftHandThumb1 -26.253704 0.000000 33.147579
Head -4.170342 59.688911 -1.113918
1446
root -2.371832 3.103162 -10.788038 -28.353531 -0.063374 0.834058
RightUpLeg -61.210279 -5.990611 7.712059
RightLeg 6.225801 -0.000000 -0.000000
RightFoot 19.963703 -1.086956 8.910488
RightToeBase -12.186812 -0.000000 0.000000
LeftUpLeg -92.154991 -36.028979 -42.554895
LeftLeg 119.739247 -0.000000 -0.000000
LeftFoot 8.883690 16.268564 -5.287148
LeftToeBase -18.971680 -0.000000 0.000000
Spine 44.043766 43.939154 24.590829
RightShoulder 13.968030 22.220053 -26.910274
RightArm 44.488257 -48.164019 65.642631
RightForeArm -52.915229 -0.000000 30.353183
RightHand 56.197957 -0.000000 29.835802
RightHandThumb1 -24.326973 -0.000000 -32.862282
LeftShoulder -23.158724 5.387290 19.033461
LeftArm -1.214512 31.648502 -95.288870
LeftForeArm -1.288385 -0.000000 18.619423
LeftHand -18.064580 -0.000000 51.105546
LeftHandThumb1 -26.253704 0.000000 33.147579
Head -4.839102 59.905722 -1.498702
1447
root -2.373889 3.114155 -10.807057 -28.386504 0.048980 0.753729
RightUpLeg -61.099845 -6.210052 7.779068
RightLeg 6.074531 -0.000000 -0.000000
RightFoot 19.839887 -1.175373 9.082669
RightToeBase -12.349463 -0.000000 0.000000
LeftUpLeg -92.031793 -36.037423 -42.547055
LeftLeg 119.678102 -0.000000 -0.000000
LeftFoot 8.864943 16.226507 -5.391145
LeftToeBase -18.893763 -0.000000 0.000000
Spine 43.960349 44.070812 24.506435
RightShoulder 13.945173 22.034710 -26.673356
RightArm 45.516053 -49.040227 63.813265
RightForeArm -51.631353 0.000000 31.216685
RightHand 55.260327 -0.000000 30.784387
RightHandThumb1 -24.326973 -0.000000 -32.862282
LeftShoulder -22.994005 5.103781 19.065579
LeftArm -0.947188 31.895501 -95.269504
LeftForeArm -1.903568 -0.000000 17.785221
LeftHand -17.873417 -0.000000 53.106279
LeftHandThumb1 -26.253704 0.000000 33.147579
Head -5.436669 60.149373 -1.793050
1448
root -2.376146 3.124539 -10.823817 -28.441817 0.175740 0.673926
RightUpLeg -60.981837 -6.414899 7.803463
RightLeg 5.956851 -0.000000 -0.000000
RightFoot 19.698587 -1.245856 9.183649
RightToeBase -12.417029 -0.000000 0.000000
LeftUpLeg -91.873440 -36.030108 -42.579549
LeftLeg 119.622026 -0.000000 -0.000000
LeftFoot 8.845948 16.197764 -5.515749
LeftToeBase -18.892499 -0.000000 0.000000
Spine 43.953202 44.201010 24.490620
RightShoulder 13.796717 21.635153 -26.534110
RightArm 47.147138 -49.902683 61.478050
RightForeArm -50.186001 -0.000000 32.113769
RightHand 54.024628 -0.000000 31.737718
RightHandThumb1 -24.326973 -0.000000 -32.862282
LeftShoulder -22.814031 4.811033 19.094133
LeftArm -0.661796 32.051856 -95.258170
LeftForeArm -2.466930 -0.000000 17.108865
LeftHand -18.487277 -0.000000 54.832155
LeftHandThumb1 -26.253704 0.000000 33.147579
Head -6.105903 60.438062 -2.212353
1449
root -2.379526 3.134746 -10.839843 -28.497742 0.304642 0.580459
RightUpLeg -60.856644 -6.609524 7.819506
RightLeg 5.831755 -0.000000 -0.000000
RightFoot 19.597572 -1.320205 9.262407
RightToeBase -12.316100 -0.000000 0.000000
LeftUpLeg -91.707917 -36.017782 -42.616926
LeftLeg 119.567502 -0.000000 -0.000000
LeftFoot 8.842623 16.179799 -5.523306
LeftToeBase -18.923761 -0.000000 0.000000
Spine 43.946685 44.317814 24.481150
RightShoulder 13.710567 21.336255 -26.370010
RightArm 48.681110 -50.729812 59.202378
RightForeArm -48.844601 -0.000000 32.995268
RightHand 52.991453 0.000000 32.250172
RightHandThumb1 -24.326973 -0.000000 -32.862282
LeftShoulder -22.644708 4.540807 19.133420
LeftArm -0.371510 32.198577 -95.304938
LeftForeArm -3.089920 -0.000000 16.384336
LeftHand -18.528556 -0.000000 56.918292
LeftHandThumb1 -26.253704 0.000000 33.147579
Head -6.744835 60.658129 -2.639713
1450
root -2.382838 3.143697 -10.853144 -28.558934 0.439392 0.498088
RightUpLeg -60.743190 -6.797712 7.810566
RightLeg 5.746193 -0.000000 -0.000000
RightFoot 19.508999 -1.368849 9.400088
RightToeBase -12.383843 -0.000000 0.000000
LeftUpLeg -91.542968 -35.997976 -42.668390
LeftLeg 119.524889 -0.000000 -0.000000
LeftFoot 8.825137 16.138633 -5.612626
LeftToeBase -18.960101 -0.000000 0.000000
Spine 43.980190 44.455672 24.502979
RightShoulder 13.547034 20.997580 -26.204418
RightArm 50.335717 -51.469173 56.856247
RightForeArm -47.532018 -0.000000 33.921662
RightHand 51.885741 -0.000000 32.877997
RightHandThumb1 -24.326973 -0.000000 -32.862282
LeftShoulder -22.509873 4.355522 19.206423
LeftArm -0.030155 32.325870 -95.342243
LeftForeArm -3.621451 -0.000000 15.757855
LeftHand -18.583239 -0.000000 58.052534
LeftHandThumb1 -26.253704 0.000000 33.147579
Head -7.513784 60.929395 -3.244181
1451
root -2.383743 3.150796 -10.864500 -28.566032 0.580792 0.442048
RightUpLeg -60.711368 -6.964454 7.781057
RightLeg 5.704626 -0.000000 -0.000000
RightFoot 19.445994 -1.407128 9.495813
RightToeBase -12.526776 -0.000000 0.000000
LeftUpLeg -91.427587 -36.014967 -42.716634
LeftLeg 119.477489 -0.000000 -0.000000
LeftFoot 8.800718 16.109003 -5.701022
LeftToeBase -18.996877 -0.000000 0.000000
Spine 43.924246 44.641942 24.456509
RightShoulder 13.417643 20.660716 -26.017592
RightArm 52.051675 -52.175768 54.438390
RightForeArm -46.104861 -0.000000 34.808823
RightHand 50.836325 -0.000000 33.072895
RightHandThumb1 -24.326973 -0.000000 -32.862282
LeftShoulder -22.333585 4.185102 19.358318
LeftArm 0.212960 32.311549 -95.453029
LeftForeArm -3.918769 -0.000000 15.169548
LeftHand -18.528686 -0.000000 58.397742
LeftHandThumb1 -26.253704 0.000000 33.147579
Head -8.098170 61.125622 -3.705054
